<svg width="22" height="22" viewBox="0 0 22 22" fill="none" xmlns="http://www.w3.org/2000/svg">
<path d="M11.1214 6.90598C10.3658 6.90598 9.19604 6.04143 7.96427 6.07269C6.33911 6.0935 4.84852 7.02057 4.01006 8.4892C2.3228 11.437 3.57531 15.791 5.22115 18.1867C6.02855 19.3533 6.98087 20.6657 8.24376 20.624C9.45486 20.572 9.91031 19.8324 11.3802 19.8324C12.8397 19.8324 13.2538 20.624 14.5373 20.5928C15.8416 20.572 16.6697 19.4053 17.4668 18.2283C18.388 16.8742 18.771 15.5618 18.7917 15.4889C18.7606 15.4785 16.2557 14.5098 16.2246 11.5932C16.2039 9.15585 18.2017 7.98925 18.2948 7.93719C17.1562 6.26019 15.4068 6.07269 14.7961 6.03102C13.202 5.90604 11.8667 6.90598 11.1214 6.90598ZM13.8127 4.44776C14.4856 3.6353 14.9307 2.49994 14.8065 1.375C13.8438 1.41666 12.6845 2.0208 11.9909 2.83326C11.3698 3.55197 10.8316 4.70818 10.9765 5.81226C12.0427 5.89559 13.1399 5.2602 13.8127 4.44776Z" fill="#161617"/>
</svg>
