<svg width="179" height="28" viewBox="0 0 179 28" fill="none" xmlns="http://www.w3.org/2000/svg">
<rect y="10" width="3" height="10" rx="1.5" fill="#7F7FFE"/>
<rect x="168" y="10" width="3" height="10" rx="1.5" fill="#7F7FFE"/>
<rect x="107" y="20" width="3" height="10" rx="1.5" transform="rotate(180 107 20)" fill="#7F7FFE"/>
<rect x="16" y="4" width="3" height="20" rx="1.5" fill="#7F7FFE"/>
<rect x="91" y="25" width="3" height="20" rx="1.5" transform="rotate(180 91 25)" fill="#7F7FFE"/>
<rect x="155" y="25" width="3" height="20" rx="1.5" transform="rotate(180 155 25)" fill="#7F7FFE"/>
<rect x="32" width="3" height="28" rx="1.5" fill="#7F7FFE"/>
<rect x="112" width="3" height="28" rx="1.5" fill="#7F7FFE"/>
<rect x="48" width="3" height="28" rx="1.5" fill="#7F7FFE"/>
<rect x="128" width="3" height="28" rx="1.5" fill="#7F7FFE"/>
<rect x="64" width="3" height="28" rx="1.5" fill="#7F7FFE"/>
<rect x="8" y="10" width="3" height="10" rx="1.5" fill="#7F7FFE"/>
<rect x="176" y="10" width="3" height="10" rx="1.5" fill="#7F7FFE"/>
<rect x="99" y="20.0391" width="3" height="10" rx="1.5" transform="rotate(180 99 20.0391)" fill="#7F7FFE"/>
<rect x="163" y="20.0391" width="3" height="10" rx="1.5" transform="rotate(180 163 20.0391)" fill="#7F7FFE"/>
<rect x="24" y="4" width="3" height="20" rx="1.5" fill="#7F7FFE"/>
<rect x="83" y="25" width="3" height="20" rx="1.5" transform="rotate(180 83 25)" fill="#7F7FFE"/>
<rect x="147" y="25" width="3" height="20" rx="1.5" transform="rotate(180 147 25)" fill="#7F7FFE"/>
<rect x="59" y="25" width="3" height="20" rx="1.5" transform="rotate(180 59 25)" fill="#7F7FFE"/>
<rect x="139" y="25" width="3" height="20" rx="1.5" transform="rotate(180 139 25)" fill="#7F7FFE"/>
<rect x="43" y="25" width="3" height="20" rx="1.5" transform="rotate(180 43 25)" fill="#7F7FFE"/>
<rect x="123" y="25" width="3" height="20" rx="1.5" transform="rotate(180 123 25)" fill="#7F7FFE"/>
<rect x="72" width="3" height="28" rx="1.5" fill="#7F7FFE"/>
</svg>
