<svg width="22" height="22" viewBox="0 0 22 22" fill="none" xmlns="http://www.w3.org/2000/svg">
<path d="M15.0028 6.74324C14.3407 6.12192 13.1796 5.37841 11.4583 5.37841C9.03431 5.37841 6.97689 6.97749 6.23334 9.18767C6.05 9.75802 5.93794 10.369 5.93794 11.0005C5.93794 11.632 6.04991 12.2431 6.24342 12.8135C6.97685 15.0237 9.03431 16.6228 11.4583 16.6228C12.8231 16.6228 13.8621 16.246 14.6361 15.7062C15.8583 14.8507 16.4084 13.5776 16.5102 12.7322H11.4584V9.33035H20.0649C20.1972 9.9007 20.2584 10.4507 20.2584 11.2044C20.2584 13.9951 19.2602 16.3479 17.5288 17.947C16.0111 19.3525 13.9333 20.1673 11.4583 20.1673C7.87312 20.1673 4.77685 18.1099 3.26944 15.1154C2.64818 13.8728 2.29163 12.4774 2.29163 11.0005C2.29163 9.52367 2.64811 8.12828 3.26938 6.88564C4.7768 3.89136 7.87321 1.83398 11.4583 1.83398C13.9333 1.83398 16.001 2.74047 17.5898 4.21732L15.0028 6.74324Z" fill="#E33E2B"/>
</svg>
