<svg width="40" height="30" viewBox="0 0 40 30" fill="none" xmlns="http://www.w3.org/2000/svg">
<path d="M0 0H40V10H0V0Z" fill="#FF9933"/>
<path d="M0 10H40V20H0V10Z" fill="white"/>
<path d="M0 20H40V30H0V20Z" fill="#128807"/>
<path d="M20 19C22.2091 19 24 17.2091 24 15C24 12.7909 22.2091 11 20 11C17.7909 11 16 12.7909 16 15C16 17.2091 17.7909 19 20 19Z" fill="#000088"/>
<path d="M20 18.5C21.933 18.5 23.5 16.933 23.5 15C23.5 13.067 21.933 11.5 20 11.5C18.067 11.5 16.5 13.067 16.5 15C16.5 16.933 18.067 18.5 20 18.5Z" fill="white"/>
<path d="M20 15.6988C20.3866 15.6988 20.7 15.3854 20.7 14.9988C20.7 14.6122 20.3866 14.2988 20 14.2988C19.6134 14.2988 19.3 14.6122 19.3 14.9988C19.3 15.3854 19.6134 15.6988 20 15.6988Z" fill="#000088"/>
<path d="M23.4465 15.6343C23.5451 15.6473 23.6355 15.5779 23.6485 15.4794C23.6615 15.3808 23.5921 15.2904 23.4935 15.2774C23.395 15.2644 23.3045 15.3338 23.2916 15.4324C23.2786 15.5309 23.348 15.6213 23.4465 15.6343Z" fill="#000088"/>
<path d="M20.0001 18.4984L20.1201 16.3984L20.0001 15.3984L19.8801 16.3984L20.0001 18.4984Z" fill="#000088"/>
<path d="M23.1643 16.505C23.2562 16.543 23.3615 16.4994 23.3995 16.4076C23.4376 16.3157 23.3939 16.2104 23.3021 16.1724C23.2103 16.1344 23.105 16.178 23.0669 16.2698C23.0289 16.3617 23.0725 16.467 23.1643 16.505Z" fill="#000088"/>
<path d="M19.0942 18.3789L19.7536 16.3816L19.8965 15.3846L19.5218 16.3194L19.0942 18.3789Z" fill="#000088"/>
<path d="M22.6664 17.2721C22.7453 17.3327 22.8583 17.3178 22.9188 17.2389C22.9793 17.16 22.9645 17.047 22.8856 16.9865C22.8067 16.926 22.6937 16.9409 22.6332 17.0198C22.5727 17.0986 22.5876 17.2116 22.6664 17.2721Z" fill="#000088"/>
<path d="M18.25 18.0298L19.404 16.2712L19.8 15.3452L19.1961 16.1512L18.25 18.0298Z" fill="#000088"/>
<path d="M21.9869 17.8873C22.0475 17.9662 22.1604 17.9811 22.2393 17.9206C22.3182 17.8601 22.3331 17.7471 22.2725 17.6682C22.212 17.5893 22.099 17.5744 22.0202 17.635C21.9413 17.6955 21.9264 17.8085 21.9869 17.8873Z" fill="#000088"/>
<path d="M17.5251 17.4741L19.0949 16.0741L19.7172 15.2821L18.9252 15.9044L17.5251 17.4741Z" fill="#000088"/>
<path d="M21.172 18.3021C21.21 18.394 21.3153 18.4376 21.4071 18.3995C21.499 18.3615 21.5426 18.2562 21.5046 18.1643C21.4665 18.0725 21.3612 18.0289 21.2694 18.0669C21.1775 18.105 21.1339 18.2103 21.172 18.3021Z" fill="#000088"/>
<path d="M16.9689 16.7496L18.8476 15.8035L19.6536 15.1996L18.7276 15.5957L16.9689 16.7496Z" fill="#000088"/>
<path d="M20.2771 18.493C20.2901 18.5916 20.3805 18.661 20.4791 18.648C20.5776 18.635 20.647 18.5446 20.634 18.446C20.6211 18.3475 20.5306 18.2781 20.4321 18.2911C20.3335 18.304 20.2641 18.3945 20.2771 18.493Z" fill="#000088"/>
<path d="M16.6193 15.9046L18.6788 15.477L19.6136 15.1022L18.6167 15.2451L16.6193 15.9046Z" fill="#000088"/>
<path d="M19.3634 18.4459C19.3504 18.5445 19.4198 18.6349 19.5184 18.6479C19.6169 18.6609 19.7074 18.5915 19.7203 18.4929C19.7333 18.3944 19.6639 18.3039 19.5654 18.291C19.4668 18.278 19.3764 18.3474 19.3634 18.4459Z" fill="#000088"/>
<path d="M16.5 14.9989L18.6 15.1189L19.6 14.9989L18.6 14.8789L16.5 14.9989Z" fill="#000088"/>
<path d="M18.4931 18.1633C18.4551 18.2551 18.4987 18.3604 18.5905 18.3985C18.6824 18.4365 18.7877 18.3929 18.8257 18.3011C18.8638 18.2092 18.8201 18.1039 18.7283 18.0659C18.6364 18.0278 18.5312 18.0715 18.4931 18.1633Z" fill="#000088"/>
<path d="M16.6193 14.0929L18.6167 14.7523L19.6137 14.8952L18.6788 14.5205L16.6193 14.0929Z" fill="#000088"/>
<path d="M17.7254 17.6658C17.6649 17.7447 17.6798 17.8577 17.7586 17.9182C17.8375 17.9787 17.9505 17.9639 18.011 17.885C18.0715 17.8061 18.0567 17.6931 17.9778 17.6326C17.8989 17.5721 17.7859 17.587 17.7254 17.6658Z" fill="#000088"/>
<path d="M16.9689 13.2492L18.7276 14.4032L19.6536 14.7992L18.8476 14.1953L16.9689 13.2492Z" fill="#000088"/>
<path d="M17.1128 16.9861C17.0339 17.0466 17.019 17.1596 17.0795 17.2385C17.1401 17.3173 17.2531 17.3322 17.3319 17.2717C17.4108 17.2112 17.4257 17.0982 17.3652 17.0193C17.3046 16.9404 17.1916 16.9256 17.1128 16.9861Z" fill="#000088"/>
<path d="M17.5251 12.5237L18.9252 14.0935L19.7171 14.7157L19.0949 13.9238L17.5251 12.5237Z" fill="#000088"/>
<path d="M16.697 16.1699C16.6051 16.2079 16.5615 16.3132 16.5996 16.4051C16.6376 16.4969 16.7429 16.5405 16.8347 16.5025C16.9266 16.4644 16.9702 16.3591 16.9322 16.2673C16.8941 16.1755 16.7888 16.1318 16.697 16.1699Z" fill="#000088"/>
<path d="M18.25 11.9671L19.1961 13.8458L19.8 14.6518L19.4039 13.7258L18.25 11.9671Z" fill="#000088"/>
<path d="M16.5062 15.2759C16.4076 15.2889 16.3382 15.3793 16.3512 15.4779C16.3642 15.5765 16.4546 15.6458 16.5532 15.6329C16.6517 15.6199 16.7211 15.5295 16.7081 15.4309C16.6952 15.3324 16.6047 15.263 16.5062 15.2759Z" fill="#000088"/>
<path d="M19.0941 11.6187L19.5217 13.6782L19.8965 14.6131L19.7536 13.6161L19.0941 11.6187Z" fill="#000088"/>
<path d="M16.5535 14.3657C16.4549 14.3527 16.3645 14.4221 16.3515 14.5206C16.3385 14.6192 16.4079 14.7096 16.5065 14.7226C16.605 14.7356 16.6955 14.6662 16.7084 14.5676C16.7214 14.4691 16.652 14.3787 16.5535 14.3657Z" fill="#000088"/>
<path d="M19.9999 11.5016L19.8799 13.6016L19.9999 14.6016L20.1199 13.6016L19.9999 11.5016Z" fill="#000088"/>
<path d="M16.8357 13.495C16.7438 13.457 16.6385 13.5006 16.6005 13.5924C16.5624 13.6843 16.6061 13.7896 16.6979 13.8276C16.7897 13.8656 16.895 13.822 16.9331 13.7302C16.9711 13.6383 16.9275 13.533 16.8357 13.495Z" fill="#000088"/>
<path d="M20.9058 11.6211L20.2464 13.6184L20.1035 14.6154L20.4782 13.6806L20.9058 11.6211Z" fill="#000088"/>
<path d="M17.3336 12.7279C17.2547 12.6673 17.1417 12.6822 17.0812 12.7611C17.0207 12.84 17.0355 12.953 17.1144 13.0135C17.1933 13.074 17.3063 13.0591 17.3668 12.9802C17.4273 12.9014 17.4124 12.7884 17.3336 12.7279Z" fill="#000088"/>
<path d="M21.75 11.9702L20.596 13.7288L20.2 14.6548L20.8039 13.8488L21.75 11.9702Z" fill="#000088"/>
<path d="M18.0131 12.1127C17.9525 12.0338 17.8396 12.0189 17.7607 12.0794C17.6818 12.1399 17.6669 12.2529 17.7275 12.3318C17.788 12.4107 17.901 12.4256 17.9798 12.365C18.0587 12.3045 18.0736 12.1915 18.0131 12.1127Z" fill="#000088"/>
<path d="M22.4749 12.5259L20.9051 13.9259L20.2828 14.7179L21.0748 14.0956L22.4749 12.5259Z" fill="#000088"/>
<path d="M18.8281 11.6959C18.7901 11.6041 18.6848 11.5605 18.5929 11.5985C18.5011 11.6366 18.4575 11.7419 18.4955 11.8337C18.5336 11.9255 18.6388 11.9692 18.7307 11.9311C18.8225 11.8931 18.8661 11.7878 18.8281 11.6959Z" fill="#000088"/>
<path d="M23.0311 13.2484L21.1525 14.1945L20.3464 14.7984L21.2725 14.4023L23.0311 13.2484Z" fill="#000088"/>
<path d="M19.723 11.505C19.71 11.4065 19.6196 11.3371 19.521 11.3501C19.4224 11.363 19.3531 11.4534 19.366 11.552C19.379 11.6506 19.4694 11.7199 19.568 11.707C19.6665 11.694 19.7359 11.6036 19.723 11.505Z" fill="#000088"/>
<path d="M23.3808 14.0935L21.3213 14.5211L20.3864 14.8958L21.3834 14.7529L23.3808 14.0935Z" fill="#000088"/>
<path d="M20.6366 11.5521C20.6496 11.4536 20.5802 11.3631 20.4817 11.3502C20.3831 11.3372 20.2927 11.4066 20.2797 11.5051C20.2667 11.6037 20.3361 11.6941 20.4347 11.7071C20.5332 11.7201 20.6237 11.6507 20.6366 11.5521Z" fill="#000088"/>
<path d="M23.5 14.9991L21.4 14.8791L20.4 14.9991L21.4 15.1191L23.5 14.9991Z" fill="#000088"/>
<path d="M21.5069 11.8347C21.545 11.7429 21.5014 11.6376 21.4095 11.5996C21.3177 11.5615 21.2124 11.6051 21.1744 11.697C21.1363 11.7888 21.1799 11.8941 21.2718 11.9322C21.3636 11.9702 21.4689 11.9266 21.5069 11.8347Z" fill="#000088"/>
<path d="M23.3808 15.9052L21.3834 15.2457L20.3864 15.1028L21.3213 15.4776L23.3808 15.9052Z" fill="#000088"/>
<path d="M22.2746 12.3322C22.3351 12.2533 22.3202 12.1403 22.2414 12.0798C22.1625 12.0193 22.0495 12.0342 21.989 12.1131C21.9285 12.1919 21.9433 12.3049 22.0222 12.3654C22.1011 12.426 22.2141 12.4111 22.2746 12.3322Z" fill="#000088"/>
<path d="M23.0311 16.7488L21.2724 15.5949L20.3464 15.1988L21.1524 15.8027L23.0311 16.7488Z" fill="#000088"/>
<path d="M22.8872 13.012C22.9661 12.9514 22.981 12.8385 22.9205 12.7596C22.8599 12.6807 22.7469 12.6658 22.6681 12.7264C22.5892 12.7869 22.5743 12.8999 22.6348 12.9787C22.6954 13.0576 22.8084 13.0725 22.8872 13.012Z" fill="#000088"/>
<path d="M22.4749 17.4744L21.0748 15.9046L20.2829 15.2823L20.9051 16.0743L22.4749 17.4744Z" fill="#000088"/>
<path d="M23.303 13.8282C23.3949 13.7901 23.4385 13.6848 23.4004 13.593C23.3624 13.5011 23.2571 13.4575 23.1653 13.4956C23.0734 13.5336 23.0298 13.6389 23.0678 13.7308C23.1059 13.8226 23.2112 13.8662 23.303 13.8282Z" fill="#000088"/>
<path d="M21.75 18.0309L20.8039 16.1523L20.2 15.3462L20.5961 16.2723L21.75 18.0309Z" fill="#000088"/>
<path d="M23.4938 14.7221C23.5924 14.7091 23.6618 14.6187 23.6488 14.5201C23.6358 14.4216 23.5454 14.3522 23.4468 14.3652C23.3483 14.3782 23.2789 14.4686 23.2919 14.5671C23.3048 14.6657 23.3953 14.7351 23.4938 14.7221Z" fill="#000088"/>
<path d="M20.9059 18.3793L20.4783 16.3198L20.1035 15.385L20.2464 16.3819L20.9059 18.3793Z" fill="#000088"/>
</svg>
