<svg width="100" height="100" viewBox="0 0 100 100" fill="none" xmlns="http://www.w3.org/2000/svg">
<g clip-path="url(#clip0_427_1319)">
<path fill-rule="evenodd" clip-rule="evenodd" d="M9.85706 59.3184H7.76967C6.36347 59.3184 5.2124 60.3702 5.2124 61.6554V90.4764C5.2124 91.7616 6.36304 92.8138 7.76967 92.8138H9.85706V59.3184ZM90.1423 59.3184H92.2297C93.6359 59.3184 94.787 60.3702 94.787 61.6554V90.4764C94.787 91.7616 93.6363 92.8138 92.2297 92.8138H90.1423V59.3184Z" fill="#333333"/>
<path fill-rule="evenodd" clip-rule="evenodd" d="M5.21261 82.9973V67.479C4.11667 64.8943 3.71389 61.4656 3.63397 57.6426H0C0.815385 70.7206 2.02692 79.6999 5.21261 82.9973ZM94.7872 82.9973V67.479C95.8831 64.8943 96.2859 61.4656 96.3658 57.6426H100C99.1844 70.7206 97.9729 79.6999 94.7872 82.9973Z" fill="#4D4D4D"/>
<path fill-rule="evenodd" clip-rule="evenodd" d="M76.1552 53.8125H73.559C71.1597 53.8125 69.1967 55.607 69.1967 57.7999V94.3319C69.1967 96.525 71.1597 98.3192 73.559 98.3192H76.1552V53.8125ZM23.8447 53.8125H26.4405C28.8398 53.8125 30.8033 55.607 30.8033 57.7999V94.3319C30.8033 96.525 28.8398 98.3192 26.4405 98.3192H23.8447V53.8125Z" fill="#1A1A1A"/>
<path fill-rule="evenodd" clip-rule="evenodd" d="M78.4222 52.1328H82.2089C86.0542 52.1328 90.1427 55.0104 90.1427 58.5249V93.6076C90.1427 97.1219 86.0557 99.9995 82.2089 99.9995H78.4222C77.1754 99.9995 76.1555 99.0672 76.1555 97.9278V54.2045C76.1555 53.0649 77.1777 52.1328 78.4222 52.1328ZM21.5781 52.1328H17.7912C13.9459 52.1328 9.85742 55.0104 9.85742 58.5249V93.6076C9.85742 97.1219 13.9446 99.9995 17.7912 99.9995H21.5781C22.8247 99.9995 23.845 99.0672 23.845 97.9278V54.2045C23.845 53.0649 22.8224 52.1328 21.5781 52.1328Z" fill="#4D4D4D"/>
<path fill-rule="evenodd" clip-rule="evenodd" d="M49.9614 10.091C18.974 10.1114 1.03469 30.6022 2.88064 57.6423H0.882772C-2.78304 27.4973 13.4646 -0.00937154 50.015 2.3952e-06C86.5524 0.00957162 102.781 27.509 99.1167 57.6423H97.1189C98.9685 30.5727 80.9768 10.0709 49.9614 10.091Z" fill="#3B4868"/>
<path d="M81.5689 52.1328V99.9995H79.68V52.1328H81.5689ZM20.3198 52.1328V99.9995H18.4307V52.1328H20.3198Z" fill="#666666"/>
</g>
<defs>
<clipPath id="clip0_427_1319">
<rect width="100" height="100" fill="white"/>
</clipPath>
</defs>
</svg>
