<svg width="40" height="30" viewBox="0 0 40 30" fill="none" xmlns="http://www.w3.org/2000/svg">
<mask id="mask0_639_206" style="mask-type:luminance" maskUnits="userSpaceOnUse" x="0" y="0" width="40" height="30">
<path d="M0.00195312 0H39.998V30H0.00195312V0Z" fill="white"/>
</mask>
<g mask="url(#mask0_639_206)">
<path fill-rule="evenodd" clip-rule="evenodd" d="M-2.5 0H42.5V30H-2.5V0Z" fill="#165D31"/>
<path fill-rule="evenodd" clip-rule="evenodd" d="M8.83787 8.50115C8.79099 9.20427 8.72068 10.4347 9.3242 10.5636C10.0449 10.634 9.64646 9.3449 9.91014 9.11052C9.95701 8.99334 10.0449 8.99334 10.0508 9.13982V10.2355C10.0508 10.5871 10.2851 10.6926 10.4609 10.7629C10.6484 10.7511 10.7773 10.7629 10.8476 10.9386L10.9414 12.8312C10.9414 12.8312 11.375 12.9601 11.3984 11.7707C11.416 11.0676 11.2578 10.4875 11.3515 10.3527C11.3515 10.2179 11.5273 10.2121 11.6445 10.2765C11.832 10.4054 11.914 10.5695 12.207 10.5109C12.6523 10.382 12.9219 10.1652 12.9277 9.82537C12.9189 9.49139 12.8494 9.16181 12.7226 8.85271C12.7461 8.79412 12.6406 8.63591 12.664 8.57732C12.7402 8.70623 12.8633 8.69451 12.8867 8.57732C12.8105 8.33123 12.6933 8.09099 12.5058 7.99138C12.3476 7.85076 12.1133 7.87419 12.0371 8.16716C11.9902 8.50115 12.1543 8.89373 12.3945 9.22185C12.4472 9.3449 12.5176 9.55584 12.4883 9.74334C12.3594 9.81951 12.2304 9.78435 12.1191 9.67302C12.1191 9.67302 11.7676 9.40935 11.7676 9.3449C11.8613 8.74724 11.7851 8.67693 11.7324 8.50701C11.6972 8.27849 11.5859 8.20232 11.498 8.04998C11.4101 7.95623 11.2929 7.95623 11.2344 8.04998C11.0762 8.31951 11.1523 8.89959 11.2637 9.16326C11.3457 9.40349 11.4687 9.55584 11.4101 9.55584C11.3633 9.6906 11.2637 9.65545 11.1875 9.49724C11.1017 9.1643 11.0604 8.82149 11.0644 8.47771C11.0351 8.20818 11 7.63396 10.8183 7.48162C10.7129 7.34099 10.5547 7.4113 10.4961 7.54021C10.4806 7.80197 10.4865 8.06456 10.5137 8.32537C10.6308 8.75896 10.6719 9.14568 10.7304 9.58513C10.748 10.1769 10.3906 9.84294 10.4082 9.54412C10.485 9.16844 10.4791 8.78052 10.3906 8.4074C10.332 8.25505 10.2676 8.2199 10.1211 8.24334C10.0097 8.24334 9.72263 8.55388 9.6406 9.08123C9.6406 9.08123 9.57029 9.35076 9.54099 9.59099C9.49998 9.86052 9.3242 10.0597 9.19529 9.55584C9.08982 9.1867 9.01951 8.29021 8.84373 8.50115H8.83787Z" fill="white"/>
<path fill-rule="evenodd" clip-rule="evenodd" d="M10.8008 11.3789L8.92578 12.2812C8.94336 11.8535 9.81055 11.0859 10.4082 11.0801C10.7891 11.0859 10.6953 11.2266 10.7949 11.3789H10.8008Z" fill="white"/>
<path fill-rule="evenodd" clip-rule="evenodd" d="M10.4668 11.9642C9.48245 14.513 12.7813 14.8704 13.1504 12.0696C13.1856 11.9525 13.3262 11.8411 13.3496 12.0286C13.2735 14.5657 10.7949 14.7357 10.3731 13.9388C10.2738 13.6646 10.2242 13.3749 10.2266 13.0833C10.168 12.5853 9.90432 12.7786 9.8633 13.2708C9.82229 13.5462 9.83401 13.6224 9.83401 13.886C9.96291 15.89 13.1563 15.0286 13.6778 13.3763C13.9531 12.4622 13.6309 11.7884 13.7774 11.7884C14.0938 12.1282 14.5391 11.8353 14.6387 11.7181C14.6797 11.6595 14.7852 11.6185 14.8555 11.6946C15.1016 11.8704 15.5352 11.7884 15.6289 11.4778C15.6817 11.1673 15.7227 10.8509 15.7344 10.5286C15.5293 10.5872 15.3828 10.6282 15.3653 10.7161L15.3242 10.9857C15.3067 11.0735 15.1367 11.0735 15.125 10.9622C15.0489 10.6107 14.7324 10.5696 14.5391 11.1087C14.416 11.2142 14.1817 11.2376 14.1582 11.0794C14.1875 10.7161 14.041 10.6693 13.7481 10.8392L13.4668 8.71808C13.584 8.71808 13.7012 8.80597 13.8125 8.66535C13.6953 8.28449 13.4317 7.51105 13.2852 7.45246C13.2207 7.37042 13.1621 7.42316 13.0684 7.4466C12.916 7.49347 12.7754 7.62238 12.8223 7.88019C12.9981 8.98175 13.1153 9.81964 13.2969 10.9271C13.3262 11.0501 13.2207 11.22 13.0801 11.2025C12.8457 11.0443 12.7871 10.722 12.377 10.7337C12.084 10.7337 11.7559 11.056 11.7149 11.3607C11.6621 11.6068 11.6446 11.8704 11.7149 12.0814C11.9199 12.3275 12.166 12.304 12.3828 12.2513C12.5586 12.1751 12.7051 11.9993 12.7696 12.0403C12.8106 12.0931 12.7754 12.679 11.9317 13.1243C11.4219 13.3587 11.0117 13.4056 10.7949 12.9896C10.6602 12.7259 10.8067 11.7357 10.4668 11.9642Z" fill="white"/>
<path fill-rule="evenodd" clip-rule="evenodd" d="M14.668 9.37432C14.8613 9.304 15.7988 8.22588 15.7988 8.22588L15.6582 8.10869C15.6055 8.06768 15.6113 8.0208 15.6582 7.97979C15.8926 7.83916 15.8164 7.54619 15.6992 7.40557C15.6197 7.36678 15.5322 7.34712 15.4437 7.34814C15.3551 7.34915 15.2681 7.37082 15.1895 7.41143C15.0254 7.56963 14.9902 7.82158 15.1191 7.97393C15.2422 8.03252 15.3652 8.16143 15.2832 8.23174C14.8965 8.64189 13.8477 9.35088 13.9707 9.37432C13.9941 9.40947 14.6445 9.40947 14.6621 9.37432H14.668ZM8.98438 13.1829C8.63282 13.7454 8.60352 14.5833 8.79688 14.8353C8.90235 14.9524 9.07227 15.0052 9.19532 14.9642C9.41798 14.8704 9.51759 14.4192 9.46485 14.261C9.38868 14.1438 9.33009 14.1263 9.25391 14.22C9.10157 14.5364 9.03712 14.3196 9.01954 14.1438C9.00275 13.8462 9.01846 13.5475 9.06641 13.2532C9.10743 13.0071 9.06641 13.0774 8.98438 13.1829ZM24.0488 12.2864C23.709 11.5481 23.2344 10.8216 23.0879 10.5462C22.6313 9.82434 22.1465 9.12068 21.6348 8.43682C21.2715 8.00322 22.2324 8.61846 21.5176 7.75127L20.9961 7.31182C20.8789 7.22979 20.5977 7.07744 20.5508 7.32354C20.5274 7.54619 20.5391 7.66338 20.5742 7.84502C20.6035 7.96221 20.7793 8.16728 20.8672 8.28447C22.0684 9.87556 23.1235 11.5719 24.0195 13.3528C24.1719 13.2767 24.1367 12.4095 24.0488 12.2864Z" fill="white"/>
<path fill-rule="evenodd" clip-rule="evenodd" d="M22.5547 14.7366C22.4844 14.8128 22.7187 15.1351 23.0234 15.1351C23.5273 15.0765 23.9726 14.7952 24.3828 14.0452C24.5495 13.7957 24.6558 13.5109 24.6933 13.2132C24.743 11.7908 24.6289 10.3674 24.3535 8.97101C24.3359 8.85383 24.3535 8.7132 24.3652 8.67805C24.4004 8.63703 24.5117 8.67805 24.5703 8.57844C24.6582 8.49055 24.3359 7.75812 24.1601 7.48273C24.1015 7.35383 24.0722 7.2718 23.9668 7.49445C23.8395 7.74013 23.7789 8.0149 23.791 8.29133C24.0312 9.96125 24.1074 11.4202 24.2597 13.0902C24.2773 13.2542 24.2539 13.4886 24.1426 13.5823C23.7004 14.0746 23.1593 14.468 22.5547 14.7366ZM29.3808 14.7308C29.0176 14.9417 29.0176 15.182 29.3105 15.1878C29.8144 15.1292 30.4121 15.0882 30.8222 14.4671C30.9671 14.1746 31.0509 13.8556 31.0683 13.5296C31.1421 12.1291 31.0497 10.7248 30.793 9.34601C30.7812 9.22883 30.7285 8.95344 30.7461 8.91828C30.7812 8.83625 30.9453 8.92414 31.0039 8.83039C31.0859 8.7425 30.5762 8.08625 30.3945 7.805C30.3359 7.67609 30.3125 7.59406 30.2012 7.81672C30.0831 8.06466 30.0462 8.34348 30.0957 8.61359C30.3652 10.43 30.5644 11.7894 30.6055 13.3948C30.582 13.5472 30.5762 13.6292 30.5058 13.8226C30.3476 14.0218 30.1719 14.2796 30.0078 14.4027C29.8437 14.5198 29.4922 14.637 29.3808 14.7308Z" fill="white"/>
<path fill-rule="evenodd" clip-rule="evenodd" d="M29.6504 13.1067C29.6504 12.679 29.6562 12.3157 29.6445 11.9934C29.6407 11.7205 29.5809 11.4512 29.4687 11.2024C29.3633 10.9622 29.4277 10.7688 29.375 10.511C29.3281 10.2532 29.3398 9.86646 29.2695 9.56764C29.2461 9.45045 29.1875 9.06959 29.2051 9.02857C29.2344 8.94654 29.3457 9.02857 29.4043 8.93482C29.4863 8.84693 29.1113 7.88014 28.9238 7.60475C28.8594 7.4817 28.7305 7.52271 28.584 7.72193C28.4375 7.8567 28.4902 8.15553 28.5488 8.44264C28.9062 10.3352 29.1816 12.052 29.123 13.8508C29.0996 14.0032 29.6504 13.3938 29.6504 13.1067ZM26.9727 10.7629C26.7441 10.7512 26.2695 10.3118 26.1289 10.0598C26.1059 9.99825 26.0961 9.93252 26.1001 9.8669C26.1042 9.80129 26.1219 9.73725 26.1523 9.67896C26.2402 9.62037 26.3691 9.56178 26.4687 9.62037C26.4687 9.62037 26.5684 9.76099 26.5508 9.77857C26.668 9.83717 26.7266 9.80787 26.7383 9.75514C26.7441 9.66725 26.7031 9.61451 26.7031 9.52076C26.7559 9.25123 27.0547 9.21021 27.1719 9.38014C27.2539 9.48561 27.2891 9.7024 27.2949 9.84889C27.2949 9.92506 27.1777 9.83717 27.1016 9.84889C27.0371 9.87232 27.0195 9.95436 27.0137 10.0247C27.002 10.218 26.9785 10.5286 26.9727 10.7571V10.7629ZM22.7656 13.5754C22.8242 13.0012 22.7422 11.9758 22.7363 11.636C22.705 10.762 22.6326 9.88994 22.5195 9.02271C22.4492 8.53053 22.7187 9.07545 22.6836 8.78834C22.5957 8.30201 22.3262 7.96803 22.0039 7.52857C21.9043 7.38209 21.9043 7.35279 21.7461 7.56373C21.5703 7.95631 21.7227 8.2317 21.7695 8.54225C21.998 9.55006 22.1328 10.4758 22.1973 11.3958C22.2647 12.3514 22.2726 13.3103 22.2207 14.2669C22.3965 14.2727 22.666 13.9915 22.7656 13.5754Z" fill="white"/>
<path fill-rule="evenodd" clip-rule="evenodd" d="M30.4297 12.657C30.0254 11.9773 29.4219 11.2507 29.2578 10.9753C28.7145 10.2166 28.1438 9.47781 27.5469 8.76048C27.0488 8.23313 27.7813 8.67259 27.4531 8.26243C27.1778 7.9636 27.1016 7.86399 26.8613 7.68235C26.7442 7.60618 26.6738 7.4597 26.627 7.71165C26.6083 7.92989 26.6044 8.14913 26.6153 8.3679C26.6153 8.46751 26.7207 8.66087 26.8145 8.77806C28.0274 10.2722 29.3574 11.7956 30.4238 13.7116C30.5762 13.6355 30.5235 12.7741 30.4238 12.657H30.4297Z" fill="white"/>
<path fill-rule="evenodd" clip-rule="evenodd" d="M12.1836 11.4084C12.1543 11.4612 12.0899 11.5256 12.1133 11.5901C12.1543 11.6487 12.1953 11.6662 12.2656 11.6662C12.3301 11.6662 12.4239 11.6838 12.4414 11.6487C12.4766 11.6076 12.5 11.5315 12.4766 11.4553C12.4063 11.2795 12.2188 11.3498 12.1836 11.4084Z" fill="#165D31"/>
<path fill-rule="evenodd" clip-rule="evenodd" d="M25.7539 21.2408C26.293 21.2642 26.6445 21.2701 27.1191 21.3228L27.6816 21.2642C28.3027 21.2057 28.3262 22.149 28.3262 22.149C28.3262 22.7057 28.1094 22.7349 27.834 22.7935C27.6758 22.817 27.5996 22.6998 27.5117 22.5826C27.3792 22.6251 27.2381 22.6331 27.1016 22.606C26.873 22.5943 26.6504 22.5943 26.4277 22.5767C26.1934 22.5592 26.0645 22.606 25.8242 22.5826C25.7773 22.6588 25.707 22.7642 25.5664 22.7349C25.4492 22.7174 25.3027 22.3834 25.3438 22.1197C25.4316 21.9322 25.4023 21.9967 25.4023 21.9146C23.1992 21.856 20.9785 21.7564 18.8223 21.7857C17.1348 21.7916 15.4707 21.8619 13.8008 21.9322C12.9102 21.9205 12.2305 21.7799 11.7617 21.0943C11.8086 21.0943 14.0352 21.2174 14.6855 21.1764C15.8867 21.1646 16.9883 21.065 18.2129 21.0299C20.627 21.0709 23.0234 21.0709 25.4375 21.2408C25.2031 21.0826 25.2031 20.7135 25.5547 20.6197C25.584 20.5963 25.6016 20.8014 25.6543 20.7955C25.9414 20.7779 25.8125 21.1646 25.7539 21.2408ZM16.0508 7.92831C15.6875 8.97128 16.2617 10.1197 16.6602 10.0084C16.9531 10.1256 17.1289 9.57479 17.2461 8.97714C17.334 8.80721 17.3926 8.78964 17.4336 8.87753C17.4219 9.6744 17.4922 9.85604 17.6973 10.0963C18.1543 10.4478 18.5352 10.1432 18.5645 10.1139L18.916 9.75643C18.998 9.66854 19.1035 9.66854 19.2148 9.73885C19.3262 9.83846 19.3086 10.0084 19.543 10.1256C19.7422 10.2076 20.1582 10.149 20.2578 9.97909C20.3867 9.75057 20.4219 9.6744 20.4805 9.59237C20.5742 9.46932 20.7324 9.52206 20.7324 9.56307C20.7148 9.63339 20.6211 9.69784 20.6855 9.82675C20.8027 9.90878 20.8262 9.85604 20.8906 9.83846C21.125 9.72128 21.3008 9.21737 21.3008 9.21737C21.3066 9.02987 21.2012 9.04159 21.1309 9.08846L20.9492 9.21151C20.832 9.22909 20.6152 9.30526 20.5039 9.13534C20.3926 8.93612 20.3926 8.64901 20.3105 8.44393C20.3105 8.43221 20.1582 8.12167 20.2988 8.10409C20.3691 8.11581 20.5156 8.15682 20.5391 8.03378C20.6094 7.91073 20.3867 7.56503 20.2285 7.38925C20.0937 7.24276 19.9062 7.22518 19.7246 7.37753C19.5957 7.49471 19.6133 7.62362 19.5898 7.74667C19.5676 7.83485 19.5666 7.92704 19.587 8.01567C19.6074 8.10429 19.6485 8.18681 19.707 8.25643C19.8359 8.50253 20.0645 8.82479 19.9883 9.28182C19.9883 9.28182 19.8535 9.49276 19.6191 9.46346C19.5195 9.44589 19.3613 9.40487 19.2793 8.77206C19.2148 8.30331 19.291 7.63534 19.0918 7.32479C19.0156 7.13143 18.9629 6.94979 18.7871 7.27206C18.7402 7.40096 18.5352 7.59432 18.6816 7.9869C18.8203 8.34067 18.8607 8.72531 18.7988 9.10018C18.7109 9.22909 18.6934 9.2701 18.582 9.39315C18.4297 9.56893 18.2598 9.52206 18.1309 9.4576C18.0137 9.38143 17.9199 9.34042 17.8613 9.07674C17.873 8.66659 17.8965 7.99276 17.8203 7.85214C17.709 7.62948 17.5273 7.71151 17.4512 7.78182C17.1026 8.16904 16.8692 8.64596 16.7773 9.15878C16.6719 9.49862 16.5605 9.39901 16.4844 9.26425C16.2969 9.08846 16.2793 7.69979 16.0508 7.92831Z" fill="white"/>
<path fill-rule="evenodd" clip-rule="evenodd" d="M17.1524 10.2016C17.3223 10.0844 17.2461 10.0023 17.4922 10.2484C17.8098 10.8105 17.9943 11.4379 18.0313 12.0824C18.0195 12.2348 18.125 12.3285 18.1777 12.2934C18.2012 11.9418 19.0625 11.4496 19.8535 11.3793C19.9707 11.35 19.9121 11.1215 19.9297 11.0043C19.8828 10.5648 20.1758 10.1664 20.5859 10.1371C21.1484 10.2191 21.3359 10.518 21.3477 10.9691C21.2832 11.848 20.3691 11.9945 19.8594 12.0648C19.7832 12.0941 19.7481 12.1293 19.8594 12.1703L22.0039 12.182L22.1152 12.2406C22.127 12.2992 22.0801 12.2523 21.9981 12.393C21.8801 12.6002 21.8063 12.8296 21.7813 13.0668C21.1426 13.2777 20.4805 13.3598 19.8125 13.4476C19.5781 13.5648 19.4609 13.723 19.5078 13.8988C19.5899 14.0922 20.1055 14.2914 20.1055 14.2973C20.2051 14.3559 20.3164 14.5023 20.0762 14.8012C19.0332 14.7543 18.2188 14.309 17.9375 13.682C17.8555 13.6176 17.7617 13.682 17.7031 13.7641C17.293 14.2914 16.8945 14.7601 16.1973 15.018C15.7871 15.1234 15.3594 14.9535 15.1602 14.684C15.0254 14.5258 15.0313 14.3559 14.9844 14.3207C14.7559 14.4203 12.8223 15.2406 13.0684 14.8539C13.5371 14.3559 14.3574 13.9809 15.0723 13.4887C15.125 13.3187 15.2188 12.7562 15.5 12.5746C15.5176 12.5746 15.459 12.9027 15.4649 13.0434C15.4649 13.1605 15.4531 13.2016 15.4766 13.1723C15.5293 13.143 16.3965 12.4574 16.4727 12.2465C16.5547 12.1293 16.4902 11.8246 16.4902 11.8129C16.3262 11.391 16.0977 11.3559 16.0156 11.1449C15.9395 10.8695 15.9746 10.5531 16.1328 10.4594C16.2734 10.3363 16.4375 10.348 16.5957 10.4887C16.7715 10.6469 16.9238 10.9574 16.9707 11.1859C16.9414 11.2738 16.7363 11.1273 16.6777 11.1684C16.7905 11.298 16.8655 11.4561 16.8945 11.6254C17.0117 12.1059 16.9766 12.2934 16.8594 12.6039C16.4727 13.4184 15.9805 13.6586 15.5469 13.9633C15.5352 13.9633 15.5293 14.1684 15.6875 14.2797C15.7461 14.3383 15.9746 14.3676 16.2383 14.2797C16.8016 13.9668 17.2571 13.4909 17.5449 12.9144C17.5947 12.4758 17.5467 12.0315 17.4043 11.6137C17.2344 11.2211 17.0352 10.6644 17.0352 10.6527C17.0293 10.4066 17.0469 10.3246 17.1524 10.2016ZM11.5391 7.93984C11.7852 8.05702 12.2539 8.00429 12.2305 7.60585L12.2188 7.42421C12.1719 7.30702 12.0313 7.33632 12.002 7.45351C11.9902 7.49452 12.0195 7.55898 11.9844 7.57655C11.9609 7.59999 11.8848 7.58827 11.8848 7.47695C11.8848 7.44179 11.8613 7.40663 11.8438 7.3832C11.832 7.37148 11.8203 7.37148 11.791 7.37148C11.7559 7.37148 11.7559 7.37734 11.7383 7.40663C11.7324 7.43593 11.7207 7.46523 11.7207 7.50038C11.7207 7.5414 11.6973 7.55312 11.6738 7.55898C11.6387 7.55898 11.6445 7.55898 11.6152 7.54726C11.6035 7.52968 11.5859 7.52382 11.5859 7.48866L11.5684 7.39491C11.5566 7.37734 11.5332 7.36562 11.5098 7.35976C11.375 7.35976 11.3633 7.51796 11.375 7.57655C11.3633 7.58827 11.3574 7.86366 11.5391 7.93984Z" fill="white"/>
<path fill-rule="evenodd" clip-rule="evenodd" d="M18.7754 10.998C19.0215 11.1152 19.6133 11.0507 19.4668 10.6699L19.4551 10.4824C19.4024 10.3652 19.2676 10.3945 19.2383 10.5175C19.2266 10.5527 19.2559 10.6171 19.2149 10.6347C19.1973 10.6582 19.1153 10.6464 19.1211 10.541C19.1211 10.5058 19.0977 10.4648 19.0801 10.4414C19.0625 10.4355 19.0567 10.4296 19.0215 10.4296C18.9922 10.4296 18.9922 10.4414 18.9746 10.4707C18.9629 10.4999 18.9571 10.5292 18.9571 10.5644C18.9512 10.5996 18.9336 10.6113 18.9043 10.623C18.875 10.623 18.8809 10.623 18.8574 10.6054C18.8399 10.5878 18.8223 10.582 18.8223 10.5527L18.8047 10.4589C18.793 10.4414 18.7696 10.4296 18.7461 10.4238C18.6114 10.4238 18.5996 10.5761 18.6055 10.6347C18.5996 10.6464 18.5938 10.9277 18.7813 10.998H18.7754ZM22.9942 9.73237C23.2403 9.84956 23.7032 9.79682 23.6856 9.40425L23.6739 9.21675C23.6211 9.09956 23.4864 9.12886 23.4571 9.24604C23.4453 9.28706 23.4746 9.35151 23.4336 9.37495C23.416 9.39253 23.334 9.38081 23.3399 9.26948C23.3399 9.23432 23.3164 9.19917 23.2989 9.17573C23.2813 9.16401 23.2754 9.16401 23.2403 9.16401C23.211 9.16401 23.211 9.17573 23.1934 9.20503L23.1758 9.29292C23.1699 9.33393 23.1524 9.35151 23.1231 9.35151C23.0938 9.35151 23.0996 9.35151 23.0762 9.33979C23.0586 9.32222 23.041 9.31636 23.041 9.28706C23.041 9.25776 23.0352 9.21089 23.0235 9.18745C23.0117 9.16987 22.9883 9.16401 22.9649 9.15815C22.8301 9.15815 22.8184 9.3105 22.8242 9.36909C22.8184 9.38081 22.8125 9.6562 23 9.73237H22.9942ZM25.1797 12.914C24.752 13.4003 24.9395 14.2031 25.0391 14.3789C25.1797 14.6601 25.291 14.8417 25.5664 14.9824C25.8184 15.164 26.0176 15.0527 26.1231 14.9238C26.375 14.6601 26.3809 13.9863 26.4981 13.8574C26.5801 13.6113 26.791 13.6523 26.8907 13.7636C26.9838 13.8959 27.1088 14.0027 27.2539 14.0742C27.4883 14.2792 27.7696 14.3203 28.0508 14.1328C28.2383 14.0214 28.3614 13.8867 28.4727 13.6113C28.5899 13.2832 28.5313 11.7597 28.502 10.8574L28.2559 9.59761C28.2559 9.58589 28.2266 8.99995 28.1973 8.86518C28.1973 8.80659 28.1797 8.78901 28.2383 8.79487C28.3028 8.85347 28.3086 8.85347 28.3555 8.87104C28.4141 8.88276 28.4727 8.77143 28.4317 8.67768L27.8457 7.58784C27.7989 7.54097 27.7344 7.49409 27.6582 7.59956C27.6133 7.64024 27.5775 7.69002 27.5533 7.74557C27.529 7.80113 27.5169 7.86121 27.5176 7.92182C27.5352 8.17964 27.5762 8.44331 27.5938 8.70112L27.8282 10.0253C27.9043 10.9628 27.9219 11.7363 27.9981 12.6796C27.9864 13.0781 27.8633 13.4238 27.7461 13.4765C27.7461 13.4765 27.5703 13.5761 27.4532 13.4648C27.3653 13.4296 27.0196 12.8847 27.0196 12.8847C26.8438 12.7265 26.7266 12.7675 26.6035 12.8847C26.252 13.2246 26.0996 13.8457 25.8594 14.2792C25.8008 14.3789 25.625 14.455 25.4375 14.2734C24.9571 13.6113 25.2383 12.6738 25.1797 12.914ZM23.1055 7.42378C23.3282 7.51167 23.4805 7.96284 23.4336 8.1855C23.3867 8.44917 23.2696 8.74214 23.1875 8.70698C23.0938 8.67183 23.2461 8.43745 23.1582 8.19136C23.1114 8.02729 22.8067 7.73433 22.8418 7.65229C22.7832 7.47065 22.9707 7.38862 23.1055 7.41792V7.42378Z" fill="white"/>
<path fill-rule="evenodd" clip-rule="evenodd" d="M25.8946 13.1843C25.9356 12.6452 25.8594 12.3171 25.8477 12.0007C25.836 11.6843 25.4903 9.27024 25.42 9.03586C25.3321 8.57883 25.7539 8.97727 25.7071 8.70774C25.5606 8.37961 25.2032 7.89329 25.0918 7.60618C25.0215 7.48899 25.0508 7.3718 24.8985 7.57688C24.7673 7.93644 24.7212 8.3215 24.7637 8.70188C25.127 10.5945 25.4961 12.1648 25.4375 13.9636C25.6133 13.9636 25.8067 13.571 25.8946 13.1843ZM29.668 8.18625C29.8731 8.28586 29.9903 8.84836 29.9668 9.00657C29.9258 9.29954 29.8203 9.61594 29.7442 9.57493C29.6563 9.53977 29.7617 9.14133 29.7207 9.01829C29.6739 8.8425 29.3985 8.5261 29.4278 8.43235C29.3692 8.23313 29.545 8.1511 29.668 8.18625ZM14.6856 12.1648C14.8789 12.2409 14.9961 12.6511 14.9785 12.7683C14.9317 12.9851 14.8321 13.2195 14.7559 13.1843C14.6797 13.1609 14.7735 12.8679 14.7383 12.7741C14.7207 12.5573 14.4512 12.4402 14.4571 12.3464C14.4102 12.1706 14.5742 12.1413 14.6914 12.1648H14.6856Z" fill="white"/>
<path fill-rule="evenodd" clip-rule="evenodd" d="M19.3496 12.7852C19.5957 12.7969 19.7188 12.9961 19.4902 13.0781C19.2559 13.1543 19.0391 13.2188 19.0332 13.5469C19.1211 14.0156 18.916 13.8516 18.7988 13.793C18.6582 13.6875 18.2598 13.4414 18.2012 12.9141C18.1953 12.791 18.2949 12.6797 18.4531 12.6797C18.6875 12.7441 19.0391 12.75 19.3496 12.7852Z" fill="#165D31"/>
<path fill-rule="evenodd" clip-rule="evenodd" d="M9.53516 7.28813C9.81641 7.37016 9.83399 7.79204 9.81641 7.91508C9.7754 8.13774 9.67579 8.37797 9.60548 8.34868C9.52345 8.31938 9.60548 8.01469 9.56446 7.92094C9.52345 7.79203 9.28321 7.54594 9.30665 7.47563C9.25391 7.32914 9.42384 7.25883 9.53516 7.28813ZM15.1543 9.25688C14.9316 9.37407 14.8496 9.72563 14.9844 9.93657C15.1133 10.1123 15.3125 10.0479 15.3359 10.0479C15.5527 10.0713 15.6816 9.6436 15.6816 9.6436C15.6816 9.6436 15.6875 9.52641 15.4356 9.75493C15.3242 9.7725 15.3184 9.73149 15.2891 9.67289C15.2622 9.56134 15.2725 9.44409 15.3184 9.33891C15.3594 9.23344 15.2774 9.18657 15.1543 9.25688ZM16.7949 7.12407C16.6777 7.20024 16.4609 7.42875 16.4551 7.68657C16.4492 7.83305 16.4199 7.83305 16.5137 7.92094C16.5899 8.02641 16.6543 8.02055 16.7949 7.94438C16.83 7.92232 16.86 7.89322 16.8832 7.85893C16.9064 7.82463 16.9223 7.78589 16.9297 7.74516C16.9649 7.5811 16.7539 7.82719 16.7305 7.63969C16.6836 7.46391 16.8184 7.3936 16.9473 7.22953C16.9473 7.11235 16.9473 7.03618 16.7891 7.12407H16.7949ZM18.1074 7.35844C18.0558 7.5718 18.0244 7.78957 18.0137 8.00883C17.9785 8.17289 18.1895 8.24321 18.2774 8.03227C18.418 7.65141 18.418 7.48735 18.4297 7.32914C18.3887 7.07719 18.2188 7.08305 18.1074 7.35844ZM26.4277 11.5948C26.4512 11.5655 27.5996 10.751 27.5996 10.751C27.7168 10.71 27.6875 11.1729 27.6348 11.167C27.2786 11.5103 26.869 11.7933 26.4219 12.0049C26.3633 12.0459 26.3106 11.6944 26.4219 11.5948H26.4277ZM27.4649 11.5831C27.6699 11.6827 27.752 12.2745 27.7285 12.4327C27.7285 12.7491 27.5352 12.9952 27.4531 12.96C27.3711 12.919 27.4649 12.5674 27.4238 12.4444C27.377 12.2686 27.207 11.9463 27.2363 11.8526C27.1777 11.6534 27.3418 11.5479 27.4707 11.5831H27.4649ZM20.668 14.126C20.763 14.0151 20.8735 13.9184 20.9961 13.8389C21.1133 13.7803 21.2188 13.8858 21.2129 13.8799C21.2305 13.9971 21.1426 14.0967 21.1719 14.2491C21.1953 14.3077 21.2129 14.378 21.3242 14.3545C21.5059 14.2081 21.6758 14.1963 21.8516 14.1905C21.9981 14.1963 22.0039 14.4366 21.9102 14.4366C21.5762 14.5069 21.4297 14.6006 21.1895 14.6885C21.0723 14.7588 20.9785 14.6709 20.9785 14.6651C20.9785 14.6592 20.9141 14.6006 20.9551 14.4483C20.9668 14.3311 20.9199 14.2608 20.8145 14.2725C20.7441 14.3194 20.6738 14.3428 20.6387 14.2549C20.6211 14.1963 20.6152 14.1612 20.668 14.126ZM28.6719 14.4424C28.7188 14.501 28.7539 14.5596 28.666 14.6651L28.4492 14.8526C28.4141 14.9112 28.3906 15.0166 28.5078 15.0459C28.7188 15.1045 29.2109 14.7823 29.2109 14.7764C29.293 14.7178 29.2695 14.6006 29.2578 14.6006C29.2109 14.5479 29.1055 14.5831 29.0352 14.5713C29 14.5713 28.8887 14.5596 28.9414 14.4541C28.9808 14.4024 29.0124 14.3451 29.0352 14.2842C29.0645 14.2139 29.0352 14.167 28.918 14.126C28.7949 14.1026 28.7422 14.1143 28.6074 14.126C28.5371 14.1377 28.5137 14.1729 28.4961 14.2608C28.502 14.3956 28.584 14.3897 28.6719 14.4366V14.4424Z" fill="white"/>
<path fill-rule="evenodd" clip-rule="evenodd" d="M20.709 11.1145C20.6797 11.1731 20.5742 11.1731 20.4746 11.1145C20.375 11.0559 20.3164 10.9621 20.3515 10.9094C20.3867 10.8567 20.4863 10.8567 20.5859 10.9094C20.6855 10.9621 20.7383 11.0617 20.709 11.1145ZM15.4941 7.97384C15.4355 7.99142 15.3535 7.93869 15.3183 7.85666C15.2832 7.77462 15.3008 7.70431 15.3593 7.68673C15.4179 7.66915 15.4941 7.72775 15.5351 7.80392C15.5761 7.88009 15.5527 7.96212 15.4883 7.9797L15.4941 7.97384ZM25.8125 21.9719C26.3633 21.9953 26.8789 21.9719 27.4238 22.0012C27.5234 22.0891 27.4531 22.2942 27.3886 22.2824L26.9316 22.2649C26.9258 22.0891 26.4804 22.1184 26.4922 22.2707C26.2519 22.3 26.0351 22.2649 25.789 22.2531C25.7187 22.1652 25.7304 22.007 25.8125 21.9719Z" fill="#165D31"/>
</g>
</svg>
