<svg width="40" height="30" viewBox="0 0 40 30" fill="none" xmlns="http://www.w3.org/2000/svg">
<mask id="mask0_639_78" style="mask-type:luminance" maskUnits="userSpaceOnUse" x="-1" y="0" width="42" height="31">
<path d="M-0.000793457 0.00195312H40.0012V30.002H-0.000793457V0.00195312Z" fill="white"/>
</mask>
<g mask="url(#mask0_639_78)">
<path fill-rule="evenodd" clip-rule="evenodd" d="M-0.000793457 0.00195312H40.007V30.002H-0.000793457V0.00195312Z" fill="white"/>
<path fill-rule="evenodd" clip-rule="evenodd" d="M4.38245 9.11328L8.54378 2.87362L9.58372 3.56718L5.42239 9.80684L4.38245 9.11328ZM5.94236 10.1536L10.1037 3.91396L11.1436 4.60751L6.9823 10.8472L5.94236 10.1536ZM7.50228 11.1939L11.6636 4.95429L12.7036 5.64785L8.54222 11.8875L7.50228 11.1939Z" fill="black"/>
<path fill-rule="evenodd" clip-rule="evenodd" d="M27.2612 24.3711L31.4225 18.1314L32.4624 18.825L28.3011 25.0646L27.2612 24.3711ZM28.8211 25.4114L32.9824 19.1718L34.0224 19.8653L29.861 26.105L28.8211 25.4114ZM30.381 26.4518L34.5423 20.2121L35.5823 20.9057L31.4209 27.1453L30.381 26.4518Z" fill="black"/>
<path fill-rule="evenodd" clip-rule="evenodd" d="M28.8218 20.9043L34.0216 24.3721L28.8218 20.9043Z" fill="black"/>
<path d="M28.8218 20.9043L34.0216 24.3721" stroke="white" stroke-width="1.25"/>
<path fill-rule="evenodd" clip-rule="evenodd" d="M13.7427 10.8477C14.8463 9.1928 16.5622 8.04414 18.5127 7.65438C20.4633 7.26462 22.4888 7.66568 24.1437 8.76933C25.7985 9.87299 26.9472 11.5888 27.3369 13.5394C27.7267 15.49 27.3256 17.5155 26.222 19.1703L13.7427 10.8477Z" fill="#CD2E3A"/>
<path fill-rule="evenodd" clip-rule="evenodd" d="M13.7427 10.8482C12.639 12.5031 12.238 14.5286 12.6277 16.4792C13.0175 18.4297 14.1662 20.1456 15.821 21.2492C17.4759 22.3529 19.5014 22.7539 21.4519 22.3642C23.4025 21.9744 25.1184 20.8258 26.222 19.1709C26.7738 18.3435 26.9744 17.3307 26.7795 16.3554C26.5846 15.3802 26.0103 14.5222 25.1828 13.9704C24.3554 13.4186 23.3427 13.218 22.3674 13.4129C21.3921 13.6078 20.5342 14.1821 19.9824 15.0096L13.7427 10.8482Z" fill="#0047A0"/>
<path d="M19.9824 15.0083C21.1315 13.2853 20.6662 10.9569 18.9432 9.80781C17.2202 8.65869 14.8918 9.12393 13.7427 10.847C12.5936 12.57 13.0588 14.8983 14.7819 16.0475C16.5049 17.1966 18.8333 16.7313 19.9824 15.0083Z" fill="#CD2E3A"/>
<path fill-rule="evenodd" clip-rule="evenodd" d="M8.56091 27.1484L4.39958 20.9088L5.43952 20.2152L9.60086 26.4549L8.56091 27.1484ZM10.1208 26.1081L5.95949 19.8684L6.99944 19.1749L11.1608 25.4145L10.1208 26.1081ZM11.6807 25.0678L7.51941 18.8281L8.55935 18.1346L12.7207 24.3742L11.6807 25.0678Z" fill="black"/>
<path fill-rule="evenodd" clip-rule="evenodd" d="M31.4396 11.8906L27.2783 5.65097L28.3182 4.95741L32.4796 11.1971L31.4396 11.8906ZM32.9996 10.8503L28.8382 4.61063L29.8782 3.91708L34.0395 10.1567L32.9996 10.8503ZM34.5595 9.80996L30.3981 3.5703L31.4381 2.87674L35.5994 9.1164L34.5595 9.80996Z" fill="black"/>
<path fill-rule="evenodd" clip-rule="evenodd" d="M7.78015 23.1621L9.34007 22.1218L7.78015 23.1621ZM28.839 9.11761L30.6589 7.90388L28.839 9.11761ZM32.2188 6.86355L33.7787 5.82322L32.2188 6.86355Z" fill="black"/>
<path d="M7.78015 23.1621L9.34007 22.1218M28.839 9.11761L30.6589 7.90388M32.2188 6.86355L33.7787 5.82322" stroke="white" stroke-width="1.25"/>
</g>
</svg>
