<svg width="421" height="512" viewBox="0 0 421 512" fill="none" xmlns="http://www.w3.org/2000/svg">
<g clip-path="url(#clip0_497_508)">
<path fill-rule="evenodd" clip-rule="evenodd" d="M95.7051 0.0136719H294.799L421 136.548V454.103C421 485.643 395.039 511.605 363.498 511.605H95.7051C64.1551 511.605 38.2031 485.732 38.2031 454.103V57.5147C38.2031 25.8857 64.0761 0.0136719 95.7051 0.0136719Z" fill="#5B5959"/>
<path fill-rule="evenodd" clip-rule="evenodd" d="M341.028 133.408H341.009L421 188.771V136.705H366.643C357.185 136.555 348.645 135.431 341.028 133.408Z" fill="#34214F"/>
<path fill-rule="evenodd" clip-rule="evenodd" d="M294.8 0L421 136.533V136.705H366.643C321.575 135.987 297.313 113.308 294.8 75.321V0Z" fill="#D6B9FF"/>
<path d="M0 431.902V253.405L0.028 252.144C0.696 235.698 14.361 222.438 30.964 222.438H38.202V273.027H381.177C394.039 273.027 404.55 283.537 404.55 296.398V431.902C404.55 444.732 394.007 455.274 381.177 455.274H23.373C10.541 455.274 0 444.751 0 431.902Z" fill="#34214F"/>
<path d="M143.448 240.364C142.332 240.364 141.227 240.145 140.197 239.717C139.166 239.29 138.229 238.665 137.44 237.876C136.651 237.087 136.025 236.15 135.599 235.119C135.172 234.088 134.952 232.983 134.952 231.867C134.952 230.752 135.172 229.647 135.599 228.616C136.025 227.585 136.651 226.648 137.44 225.859C138.229 225.07 139.166 224.444 140.197 224.017C141.227 223.59 142.332 223.37 143.448 223.37H306.624C307.74 223.37 308.845 223.59 309.876 224.017C310.907 224.444 311.843 225.07 312.632 225.859C313.421 226.648 314.047 227.585 314.474 228.616C314.901 229.647 315.12 230.752 315.12 231.867C315.12 232.983 314.901 234.088 314.474 235.119C314.047 236.15 313.421 237.087 312.632 237.876C311.843 238.665 310.907 239.29 309.876 239.717C308.845 240.145 307.74 240.364 306.624 240.364H143.448ZM143.448 181.188C141.195 181.188 139.034 180.293 137.44 178.7C135.847 177.106 134.952 174.945 134.952 172.692C134.952 170.438 135.847 168.277 137.44 166.684C139.034 165.09 141.195 164.195 143.448 164.195H315.752C318.006 164.195 320.167 165.09 321.76 166.684C323.353 168.277 324.249 170.438 324.249 172.692C324.249 174.945 323.353 177.106 321.76 178.7C320.167 180.293 318.006 181.188 315.752 181.188H143.448Z" fill="#A890F6"/>
<path d="M11.3291 276.172V430.9C11.3291 438.693 17.7091 445.078 25.5081 445.078H380.175C387.974 445.078 394.353 438.699 394.353 430.9V297.406C394.353 289.608 387.965 283.228 380.175 283.228H37.8921C25.2741 283.132 18.3061 281.59 11.3291 276.172Z" fill="white"/>
<path d="M159.472 340.643H140.473V401.572H114.267V340.643H95.2681V319.678H159.472V340.643ZM193.802 319.678L202.843 341.562H204.153L213.193 319.678H241.627L223.413 359.249L241.627 401.572H212.538L202.712 377.987H201.532L191.837 401.572H164.058L181.877 360.037L164.058 319.678H193.802ZM310.417 340.643H291.418V401.572H265.212V340.643H246.213V319.678H310.417V340.643Z" fill="#1A1A1A"/>
</g>
<defs>
<clipPath id="clip0_497_508">
<rect width="421" height="511.605" fill="white"/>
</clipPath>
</defs>
</svg>
